<svg width="51" height="49" viewBox="0 0 51 49" fill="none" xmlns="http://www.w3.org/2000/svg">
<g clip-path="url(#clip0_526_1702)">
<path d="M25.8063 48.75C39.6051 48.75 50.7913 37.8369 50.7913 24.375C50.7913 10.9131 39.6051 0 25.8063 0C12.0075 0 0.821289 10.9131 0.821289 24.375C0.821289 37.8369 12.0075 48.75 25.8063 48.75Z" fill="url(#paint0_linear_526_1702)"/>
<path fill-rule="evenodd" clip-rule="evenodd" d="M30.2727 12.0455L29.8654 12.4623C34.434 13.8289 36.6444 15.9631 36.6444 15.9631C33.7001 14.4416 31.0466 13.6808 28.3932 13.3733C26.4758 13.0659 24.5585 13.2276 22.9387 13.3733H22.4979C21.4621 13.3733 19.2582 13.8289 16.305 15.0474C15.2758 15.5098 14.6852 15.8127 14.6852 15.8127C14.6852 15.8127 16.8935 13.5305 21.7596 12.3119L21.4621 12.0045C21.4621 12.0045 17.7772 11.8587 13.7993 14.8971C13.7993 14.8971 9.82129 22.0581 9.82129 30.8864C9.82129 30.8864 12.0252 34.8496 18.0703 34.9999C18.0703 34.9999 18.9519 33.7859 19.8444 32.7177C16.4505 31.6517 15.1282 29.5198 15.1282 29.5198C15.1282 29.5198 15.4235 29.6701 15.8665 29.9753H15.9987C16.0648 29.9753 16.0957 30.0095 16.1309 30.0437V30.0573C16.1662 30.0938 16.1971 30.1257 16.2632 30.1257C16.9904 30.4354 17.7177 30.7406 18.3128 31.0367C19.5853 31.5997 20.9164 32.0094 22.2797 32.2576C24.3293 32.5651 26.6786 32.7131 29.3541 32.2576L29.4396 32.2377C30.7334 31.937 32.0272 31.6363 33.321 31.039C34.1805 30.5835 35.2384 30.1279 36.3998 29.3604C36.3998 29.3604 35.0775 31.4923 31.5403 32.5582C32.2676 33.6196 33.2924 34.8359 33.2924 34.8359C39.3398 34.6992 41.6891 30.7361 41.8213 30.9046C41.8213 22.09 37.8213 14.9153 37.8213 14.9153C34.2594 12.182 30.9237 12.0482 30.2727 12.0455ZM33.5458 25.0988C33.5458 23.4247 32.2962 22.0581 30.7469 22.0581V22.065C29.2108 22.065 27.9524 23.427 27.948 25.1125C27.948 26.7843 29.2042 28.1509 30.7469 28.1509C32.2896 28.1509 33.5458 26.7843 33.5458 25.0988ZM23.5249 25.0988C23.5249 23.4247 22.2775 22.0581 20.7348 22.0581L20.726 22.065C19.1833 22.065 17.9271 23.427 17.9271 25.1125C17.9271 26.7843 19.1833 28.1509 20.726 28.1509C22.2687 28.1509 23.5249 26.7843 23.5249 25.0988Z" fill="url(#paint1_linear_526_1702)"/>
<path fill-rule="evenodd" clip-rule="evenodd" d="M30.2726 12.0456L30.2848 12.033L30.251 12.0456H30.2726ZM30.3559 12.0068H30.3766L30.3744 12L30.3559 12.0068Z" fill="url(#paint2_linear_526_1702)"/>
</g>
<defs>
<linearGradient id="paint0_linear_526_1702" x1="41.5004" y1="84.1178" x2="-17.2235" y2="68.6913" gradientUnits="userSpaceOnUse">
<stop stop-color="#0099FF"/>
<stop offset="1" stop-color="#00CCFF"/>
</linearGradient>
<linearGradient id="paint1_linear_526_1702" x1="13.2382" y1="12.0034" x2="32.2532" y2="41.2259" gradientUnits="userSpaceOnUse">
<stop stop-color="white"/>
<stop offset="0.916667" stop-color="#C9C9C9"/>
</linearGradient>
<linearGradient id="paint2_linear_526_1702" x1="30.2644" y1="12" x2="30.2889" y2="12.0744" gradientUnits="userSpaceOnUse">
<stop stop-color="white"/>
<stop offset="0.916667" stop-color="#C9C9C9"/>
</linearGradient>
<clipPath id="clip0_526_1702">
<rect width="50" height="49" fill="white" transform="translate(0.821289)"/>
</clipPath>
</defs>
</svg>
