<svg width="60" height="62" viewBox="0 0 60 62" fill="none" xmlns="http://www.w3.org/2000/svg">
<path d="M23.4766 61.338L22.2481 51.5231C21.1643 51.195 19.9934 50.6814 18.7354 49.9823C17.4752 49.2809 16.4027 48.5297 15.5181 47.7287L6.46672 51.5808L0.137207 40.5508L7.96001 34.6523C7.86045 34.0369 7.77787 33.4033 7.71226 32.7517C7.6489 32.1024 7.61723 31.4711 7.61723 30.858C7.61723 30.2878 7.6489 29.6882 7.71226 29.0592C7.77561 28.4302 7.85819 27.7221 7.96001 26.9347L0.137207 21.0362L6.46672 10.1352L15.4536 13.9261C16.4672 13.0822 17.5646 12.3208 18.7456 11.6421C19.9222 10.9633 21.0681 10.4384 22.1836 10.0673L23.4732 0.248932H36.1357L37.3642 10.1318C38.6652 10.5866 39.8146 11.1103 40.8124 11.7031C41.8124 12.2959 42.8408 13.0358 43.8974 13.9227L53.1456 10.1352L59.4751 21.0362L51.391 27.1315C51.5765 27.8329 51.6806 28.4755 51.7032 29.0592C51.7258 29.6475 51.7371 30.2256 51.7371 30.7935C51.7371 31.3207 51.7145 31.8761 51.6693 32.4599C51.6263 33.0459 51.5267 33.754 51.3706 34.5844L59.3258 40.5508L52.9963 51.5808L43.8974 47.6643C42.8408 48.5512 41.7774 49.3125 40.7072 49.9483C39.6347 50.5841 38.5204 51.0864 37.3642 51.4552L36.1357 61.338H23.4766ZM26.4123 57.9442H33.0507L34.303 48.7537C36.0135 48.3012 37.552 47.6801 38.9186 46.8905C40.2875 46.1008 41.6812 45.0193 43.0998 43.646L51.5674 47.2536L54.9409 41.4841L47.5118 35.9046C47.7946 34.9385 47.9824 34.0493 48.0752 33.2371C48.1657 32.4271 48.2109 31.6125 48.2109 30.7935C48.2109 29.9337 48.1657 29.1192 48.0752 28.3499C47.9847 27.5807 47.7969 26.7356 47.5118 25.8147L55.0699 20.1029L51.6964 14.3334L43.0353 17.9648C42.0081 16.8358 40.6585 15.7791 38.9865 14.7949C37.3145 13.8107 35.7307 13.1568 34.2351 12.8333L33.2 3.64277H26.4327L25.3738 12.7654C23.6633 13.1319 22.0908 13.7202 20.6564 14.5302C19.2242 15.3447 17.7987 16.4602 16.3801 17.8765L7.91589 14.3334L4.54241 20.1029L11.9036 25.6009C11.6208 26.3611 11.4229 27.187 11.3097 28.0784C11.1966 28.9699 11.14 29.8975 11.14 30.8614C11.14 31.7211 11.1966 32.5753 11.3097 33.4237C11.4229 34.2722 11.5993 35.098 11.8392 35.9012L4.54241 41.4841L7.91589 47.2536L16.3156 43.6901C17.646 45.034 19.0284 46.1121 20.4629 46.9244C21.8974 47.7367 23.5128 48.3691 25.3093 48.8216L26.4123 57.9442ZM29.7145 39.2781C32.0812 39.2781 34.0869 38.4556 35.7318 36.8108C37.3767 35.1659 38.1991 33.1601 38.1991 30.7935C38.1991 28.4269 37.3767 26.4211 35.7318 24.7762C34.0869 23.1313 32.0812 22.3089 29.7145 22.3089C27.3343 22.3089 25.3251 23.1313 23.6871 24.7762C22.049 26.4211 21.2299 28.4269 21.2299 30.7935C21.2299 33.1601 22.049 35.1659 23.6871 36.8108C25.3251 38.4556 27.3343 39.2781 29.7145 39.2781Z" fill="url(#paint0_linear_198_921)"/>
<defs>
<linearGradient id="paint0_linear_198_921" x1="48.4424" y1="105.658" x2="-21.7528" y2="88.1838" gradientUnits="userSpaceOnUse">
<stop stop-color="#0099FF"/>
<stop offset="1" stop-color="#00CCFF"/>
</linearGradient>
</defs>
</svg>
