<svg width="61" height="64" viewBox="0 0 61 64" fill="none" xmlns="http://www.w3.org/2000/svg">
<path d="M28.555 0.0825614C23.9093 0.157123 19.4405 0.99268 15.2373 2.55422L15.9771 4.95282C19.9361 3.46392 24.1492 2.66613 28.5469 2.59706L28.555 0.0825614ZM30.9719 0.108239L30.9641 2.63139C37.03 2.90094 43.4109 4.53209 49.9195 7.63924L51.1322 5.40788C44.2687 2.10273 37.4675 0.370235 30.9719 0.108239ZM12.9822 3.47244C10.3783 4.62862 7.88952 6.07495 5.53743 7.79783L6.67726 10.0676C8.90274 8.4038 11.257 7.00773 13.7219 5.88834L12.9822 3.47244ZM53.4604 6.25305L45.5062 20.8811L52.6357 25.2496L60.5898 10.6213L53.4604 6.25305ZM30.9478 7.11991L30.944 9.64732C36.0832 9.82445 41.3374 11.199 46.5084 13.9126L47.721 11.6853C42.1795 8.75642 36.5064 7.28991 30.9478 7.11991ZM28.5308 7.12843C24.6968 7.27041 20.936 8.02852 17.3271 9.34687L18.0669 11.754C21.4382 10.5095 24.9473 9.79315 28.5269 9.65583L28.5308 7.12843ZM3.56506 9.32957C2.49479 10.2161 1.46432 11.1554 0.477051 12.1445L1.76653 14.3889C2.71107 13.4188 3.69831 12.4966 4.72495 11.6255L3.56894 9.32957H3.56506ZM15.0636 10.2523C12.8272 11.233 10.6611 12.4337 8.58082 13.8397L9.72066 16.1053C11.6775 14.7624 13.7103 13.6117 15.8072 12.6725L15.0636 10.2523ZM30.9235 15.0968L30.9155 17.6288C34.8176 17.7909 38.8573 18.702 42.9639 20.4307L44.1845 18.1865C39.6966 16.2578 35.241 15.2543 30.9235 15.0968ZM28.5066 15.1012C25.4357 15.2138 22.4473 15.7507 19.5825 16.6889L20.322 19.0919C22.9471 18.2296 25.6808 17.7305 28.4984 17.6243L28.5066 15.1012ZM6.56798 15.29C5.57168 16.0489 4.60491 16.8505 3.67008 17.693L4.94714 19.9116C5.83978 19.0911 6.76343 18.3094 7.71583 17.5686L6.56798 15.29ZM17.2989 17.5342C15.4216 18.3059 13.6071 19.2511 11.8626 20.3622L12.9984 22.615C14.6195 21.5669 16.3029 20.6756 18.0425 19.9462L17.2989 17.5342ZM9.82542 21.7565C8.92857 22.4175 8.05885 23.1191 7.21866 23.8593L8.49184 26.0735C9.28977 25.3554 10.1163 24.6738 10.9693 24.0308L9.82542 21.7565ZM45.9346 24.1082L35.9188 42.5212C37.3654 42.9511 38.7539 43.577 40.0498 44.3835L49.7901 26.4682L45.9346 24.1082ZM31.1861 44.4004C23.3474 44.4007 16.9325 50.6916 16.1307 58.7844H26.7525C26.4591 58.1257 26.3073 57.406 26.3079 56.6774C26.3079 53.9487 28.418 51.7127 30.9881 51.7127C33.5582 51.7127 35.6685 53.9487 35.6685 56.6774C35.6685 57.4292 35.5094 58.1431 35.2238 58.7844H46.2416C45.4397 50.6916 39.0246 44.4004 31.1861 44.4004ZM30.9882 54.2788C29.7242 54.2788 28.7248 55.3356 28.7248 56.6774C28.7248 57.5944 29.1938 58.3787 29.8927 58.7844H32.0834C32.7823 58.3786 33.2513 57.5944 33.2513 56.6774C33.2513 55.3356 32.2522 54.2788 30.9882 54.2788ZM11.1391 61.3505V63.5046H50.3722V61.3504L11.1391 61.3505Z" fill="url(#paint0_linear_198_904)"/>
<defs>
<linearGradient id="paint0_linear_198_904" x1="49.4131" y1="109.517" x2="-21.8978" y2="92.1948" gradientUnits="userSpaceOnUse">
<stop stop-color="#0099FF"/>
<stop offset="1" stop-color="#00CCFF"/>
</linearGradient>
</defs>
</svg>
