<svg width="57" height="62" viewBox="0 0 57 62" fill="none" xmlns="http://www.w3.org/2000/svg">
<path fill-rule="evenodd" clip-rule="evenodd" d="M19.1956 2.53039C23.2977 1.12704 25.8431 0.254913 28.5049 0.254913C31.1696 0.254913 33.7121 1.12704 37.8142 2.53039L39.8795 3.24059C44.0867 4.67804 47.3365 5.79163 49.6603 6.73477C50.8307 7.20919 51.8392 7.67224 52.6488 8.14097C53.4301 8.5955 54.2113 9.16081 54.7425 9.91931C55.2681 10.6664 55.5408 11.5869 55.7112 12.476C55.8902 13.3964 55.9953 14.5015 56.0663 15.7713C56.2027 18.2883 56.2027 21.7427 56.2027 26.2198V30.7679C56.2027 48.0996 43.1123 56.409 35.3285 59.8122L35.2518 59.8435C34.2859 60.2668 33.3769 60.6616 32.3343 60.9287C31.2349 61.2127 30.0645 61.3321 28.5049 61.3321C26.9425 61.3321 25.7777 61.2127 24.6755 60.9287C23.6329 60.6616 22.7239 60.2668 21.758 59.8435L21.6813 59.8122C13.8975 56.409 0.807129 48.0996 0.807129 30.7651V26.2198C0.807129 21.7427 0.807129 18.2883 0.943487 15.7685C1.01451 14.5015 1.11962 13.3964 1.29859 12.4732C1.46903 11.5869 1.74175 10.6664 2.26446 9.91647C2.79853 9.16081 3.57975 8.5955 4.36097 8.14097C5.17059 7.67224 6.17908 7.20919 7.34948 6.73477C9.67326 5.79163 12.9231 4.67804 17.1304 3.24059L19.1956 2.53039ZM26.3743 4.7661C24.9596 5.07291 23.15 5.68084 20.2098 6.68648L18.5848 7.24328C14.2867 8.71481 11.1533 9.78863 8.95454 10.6806C8.11171 11.008 7.29173 11.3915 6.50009 11.8283C6.2934 11.9448 6.09587 12.0768 5.9092 12.2232C5.85267 12.2654 5.80035 12.313 5.75296 12.3652C5.71581 12.4321 5.68536 12.5026 5.66205 12.5755C5.60524 12.7345 5.54274 12.9618 5.48308 13.28C5.32969 14.18 5.2348 15.0891 5.199 16.0015C5.08253 18.1605 5.06833 21.0865 5.06833 24.9954L26.3743 17.8934V4.7661ZM30.6355 4.7661V17.8934L51.9415 24.9954C51.9415 21.0865 51.9273 18.1576 51.8108 16.0015C51.7751 15.0891 51.6802 14.18 51.5267 13.28C51.4845 13.0411 51.4246 12.8056 51.3478 12.5755C51.3245 12.5025 51.294 12.4321 51.2569 12.3652C51.2095 12.313 51.1571 12.2654 51.1006 12.2232C50.9141 12.0757 50.7165 11.9428 50.5097 11.8255C49.7179 11.3905 48.898 11.009 48.0553 10.6835C45.8565 9.78863 42.7231 8.71481 38.425 7.24612L36.7972 6.68648C33.8598 5.68084 32.0502 5.07291 30.6355 4.7661ZM26.3743 22.3876L5.06833 29.4896V30.7679C5.06833 45.4719 16.0622 52.7074 23.3886 55.9061C24.4426 56.3663 25.0533 56.6277 25.7323 56.801C25.9311 56.8521 26.1385 56.8976 26.3743 56.9345V22.3876ZM30.6355 56.9345V22.3876L51.9415 29.4896V30.7679C51.9415 45.4719 40.9476 52.7074 33.6212 55.9061C32.5672 56.3663 31.9565 56.6277 31.2775 56.801C31.0787 56.8521 30.8713 56.8976 30.6355 56.9345Z" fill="url(#paint0_linear_198_913)"/>
<defs>
<linearGradient id="paint0_linear_198_913" x1="45.903" y1="105.643" x2="-20.1221" y2="90.2961" gradientUnits="userSpaceOnUse">
<stop stop-color="#0099FF"/>
<stop offset="1" stop-color="#00CCFF"/>
</linearGradient>
</defs>
</svg>
