<svg width="3080" height="667" viewBox="0 0 3080 667" fill="none" xmlns="http://www.w3.org/2000/svg">
<rect x="316.126" y="340.997" width="325.285" height="313.33" transform="rotate(90 316.126 340.997)" fill="url(#paint0_linear_97_1036)"/>
<path fill-rule="evenodd" clip-rule="evenodd" d="M692.771 0.565308L692.771 666.435L377.431 666.435L377.431 278.494L0.79541 278.494L0.795532 0.565308L692.771 0.565308Z" fill="url(#paint1_linear_97_1036)"/>
<path d="M969.036 476.507C950.574 476.507 933.922 473.369 919.08 467.095C904.359 460.82 892.171 451.891 882.518 440.307C872.985 428.602 866.771 414.786 863.875 398.858L897.179 393.609C901.402 410.019 910.151 422.87 923.424 432.162C936.818 441.332 952.565 445.918 970.665 445.918C982.37 445.918 992.928 444.108 1002.34 440.488C1011.87 436.747 1019.41 431.438 1024.97 424.56C1030.52 417.682 1033.29 409.537 1033.29 400.125C1033.29 394.333 1032.27 389.385 1030.21 385.283C1028.28 381.059 1025.57 377.5 1022.07 374.604C1018.69 371.587 1014.83 369.053 1010.49 367.002C1006.14 364.95 1001.62 363.261 996.91 361.934L930.483 342.205C923.243 340.033 916.244 337.318 909.487 334.06C902.73 330.681 896.696 326.518 891.387 321.571C886.078 316.503 881.854 310.469 878.717 303.471C875.58 296.351 874.011 287.965 874.011 278.312C874.011 262.866 877.993 249.714 885.957 238.854C894.042 227.873 904.962 219.487 918.718 213.695C932.474 207.903 947.98 205.067 965.235 205.188C982.732 205.308 998.358 208.446 1012.11 214.6C1025.99 220.633 1037.45 229.321 1046.5 240.664C1055.67 252.006 1061.83 265.581 1064.97 281.389L1030.76 287.362C1028.95 276.743 1024.9 267.633 1018.63 260.031C1012.48 252.308 1004.75 246.395 995.462 242.293C986.171 238.069 975.974 235.897 964.873 235.777C954.254 235.656 944.661 237.345 936.094 240.845C927.527 244.344 920.709 249.231 915.641 255.506C910.573 261.66 908.039 268.779 908.039 276.864C908.039 284.828 910.332 291.283 914.917 296.231C919.502 301.057 925.113 304.919 931.75 307.815C938.507 310.59 945.084 312.883 951.479 314.693L1001.07 328.992C1006.74 330.56 1013.26 332.732 1020.62 335.508C1028.1 338.283 1035.34 342.205 1042.34 347.273C1049.34 352.22 1055.13 358.857 1059.72 367.183C1064.3 375.388 1066.6 385.765 1066.6 398.315C1066.6 410.864 1064.06 422.026 1058.99 431.8C1054.05 441.574 1047.11 449.779 1038.18 456.416C1029.25 462.932 1018.87 467.879 1007.05 471.258C995.221 474.757 982.551 476.507 969.036 476.507ZM1181.31 476.507C1163.09 476.507 1147.46 471.982 1134.43 462.932C1121.4 453.761 1111.32 441.393 1104.2 425.827C1097.2 410.261 1093.7 392.704 1093.7 373.156C1093.7 353.608 1097.2 336.051 1104.2 320.485C1111.32 304.919 1121.4 292.671 1134.43 283.742C1147.46 274.692 1163.03 270.167 1181.13 270.167C1199.59 270.167 1215.09 274.631 1227.64 283.561C1240.19 292.49 1249.66 304.738 1256.06 320.304C1262.58 335.87 1265.83 353.487 1265.83 373.156C1265.83 392.583 1262.58 410.14 1256.06 425.827C1249.66 441.393 1240.19 453.761 1227.64 462.932C1215.09 471.982 1199.65 476.507 1181.31 476.507ZM1185.29 447.004C1198.44 447.004 1209.24 443.866 1217.69 437.592C1226.13 431.196 1232.35 422.448 1236.33 411.347C1240.43 400.125 1242.48 387.394 1242.48 373.156C1242.48 358.676 1240.43 345.945 1236.33 334.965C1232.35 323.863 1226.19 315.236 1217.87 309.082C1209.54 302.807 1198.98 299.67 1186.19 299.67C1172.92 299.67 1161.94 302.928 1153.25 309.444C1144.68 315.96 1138.29 324.768 1134.07 335.87C1129.96 346.971 1127.91 359.4 1127.91 373.156C1127.91 387.032 1130.02 399.582 1134.25 410.804C1138.47 421.905 1144.8 430.714 1153.25 437.23C1161.82 443.746 1172.5 447.004 1185.29 447.004ZM1238.86 557.957V419.492H1242.48V275.597H1271.26V557.957H1238.86ZM1396.18 476.145C1383.64 476.145 1372.84 474.154 1363.79 470.172C1354.86 466.19 1347.44 460.88 1341.52 454.244C1335.61 447.607 1330.96 440.246 1327.59 432.162C1324.21 424.077 1321.79 415.811 1320.35 407.365C1319.02 398.918 1318.35 391.014 1318.35 383.654V275.597H1350.93V373.518C1350.93 382.688 1351.78 391.557 1353.47 400.125C1355.16 408.692 1357.99 416.415 1361.98 423.293C1366.08 430.171 1371.51 435.601 1378.27 439.583C1385.14 443.565 1393.71 445.556 1403.97 445.556C1412.05 445.556 1419.41 444.168 1426.05 441.393C1432.69 438.617 1438.36 434.515 1443.06 429.085C1447.77 423.534 1451.39 416.535 1453.92 408.089C1456.46 399.642 1457.72 389.808 1457.72 378.586L1478.9 385.102C1478.9 403.926 1475.46 420.155 1468.58 433.791C1461.83 447.426 1452.23 457.924 1439.81 465.285C1427.5 472.525 1412.96 476.145 1396.18 476.145ZM1461.34 471.077V418.768H1457.72V275.597H1490.12V471.077H1461.34ZM1596.37 476.507C1581.77 476.507 1569.52 473.852 1559.62 468.543C1549.85 463.113 1542.43 455.993 1537.36 447.185C1532.41 438.376 1529.94 428.723 1529.94 418.225C1529.94 407.968 1531.87 399.099 1535.73 391.618C1539.71 384.016 1545.27 377.741 1552.38 372.794C1559.5 367.726 1568.01 363.744 1577.91 360.848C1587.2 358.314 1597.57 356.142 1609.04 354.332C1620.62 352.401 1632.33 350.651 1644.15 349.083C1655.98 347.514 1667.02 346.006 1677.27 344.558L1665.69 351.255C1666.05 333.879 1662.55 321.028 1655.19 312.702C1647.95 304.376 1635.4 300.213 1617.54 300.213C1605.72 300.213 1595.34 302.928 1586.41 308.358C1577.6 313.667 1571.39 322.355 1567.77 334.422L1537.18 325.191C1541.89 308.056 1551 294.602 1564.51 284.828C1578.03 275.054 1595.82 270.167 1617.91 270.167C1635.64 270.167 1650.85 273.364 1663.52 279.76C1676.31 286.034 1685.48 295.567 1691.03 308.358C1693.81 314.391 1695.56 320.967 1696.28 328.087C1697 335.085 1697.37 342.446 1697.37 350.169V471.077H1668.77V424.198L1675.46 428.542C1668.1 444.349 1657.79 456.295 1644.51 464.38C1631.36 472.464 1615.31 476.507 1596.37 476.507ZM1601.25 449.538C1612.84 449.538 1622.85 447.486 1631.3 443.384C1639.87 439.16 1646.75 433.67 1651.93 426.913C1657.12 420.035 1660.5 412.553 1662.07 404.469C1663.88 398.435 1664.85 391.738 1664.97 384.378C1665.21 376.896 1665.33 371.165 1665.33 367.183L1676.55 372.07C1666.05 373.518 1655.74 374.905 1645.6 376.233C1635.46 377.56 1625.87 379.008 1616.82 380.577C1607.77 382.025 1599.63 383.774 1592.39 385.826C1587.08 387.515 1582.07 389.687 1577.36 392.342C1572.78 394.996 1569.04 398.435 1566.14 402.659C1563.37 406.761 1561.98 411.89 1561.98 418.044C1561.98 423.353 1563.31 428.421 1565.96 433.248C1568.74 438.074 1572.96 441.996 1578.63 445.013C1584.42 448.029 1591.96 449.538 1601.25 449.538ZM1744.43 471.077V275.597H1773.2V322.838L1768.5 316.684C1770.79 310.65 1773.75 305.1 1777.37 300.032C1781.11 294.964 1785.27 290.801 1789.86 287.543C1794.92 283.44 1800.66 280.303 1807.05 278.131C1813.45 275.959 1819.96 274.692 1826.6 274.33C1833.24 273.847 1839.45 274.269 1845.24 275.597V305.824C1838.49 304.014 1831.06 303.531 1822.98 304.376C1814.9 305.22 1807.41 308.177 1800.54 313.245C1794.26 317.709 1789.37 323.139 1785.87 329.535C1782.5 335.93 1780.14 342.868 1778.82 350.35C1777.49 357.71 1776.82 365.252 1776.82 372.975V471.077H1744.43ZM1960.64 476.507C1941.46 476.507 1924.68 472.283 1910.32 463.837C1896.09 455.269 1884.98 443.384 1877.02 428.18C1869.06 412.855 1865.07 394.996 1865.07 374.604C1865.07 353.246 1869 334.784 1876.84 319.218C1884.68 303.531 1895.6 291.464 1909.6 283.018C1923.72 274.45 1940.25 270.167 1959.19 270.167C1978.86 270.167 1995.57 274.692 2009.33 283.742C2023.21 292.792 2033.58 305.703 2040.46 322.476C2047.46 339.248 2050.48 359.219 2049.51 382.387H2016.93V370.803C2016.57 346.79 2011.68 328.871 2002.27 317.046C1992.86 305.1 1978.86 299.127 1960.28 299.127C1940.37 299.127 1925.23 305.522 1914.85 318.313C1904.47 331.103 1899.28 349.445 1899.28 373.337C1899.28 396.384 1904.47 414.243 1914.85 426.913C1925.23 439.583 1940.01 445.918 1959.19 445.918C1972.11 445.918 1983.33 442.961 1992.86 437.049C2002.39 431.136 2009.87 422.629 2015.3 411.528L2046.25 422.207C2038.65 439.462 2027.19 452.856 2011.86 462.389C1996.66 471.801 1979.59 476.507 1960.64 476.507ZM1888.42 382.387V356.504H2032.86V382.387H1888.42ZM2166.55 476.507C2148.33 476.507 2132.71 471.982 2119.68 462.932C2106.64 453.761 2096.57 441.393 2089.45 425.827C2082.45 410.261 2078.95 392.704 2078.95 373.156C2078.95 353.608 2082.45 336.051 2089.45 320.485C2096.57 304.919 2106.64 292.671 2119.68 283.742C2132.71 274.692 2148.27 270.167 2166.37 270.167C2184.84 270.167 2200.34 274.631 2212.89 283.561C2225.44 292.49 2234.91 304.738 2241.31 320.304C2247.82 335.87 2251.08 353.487 2251.08 373.156C2251.08 392.583 2247.82 410.14 2241.31 425.827C2234.91 441.393 2225.44 453.761 2212.89 462.932C2200.34 471.982 2184.9 476.507 2166.55 476.507ZM2170.54 447.004C2183.69 447.004 2194.49 443.866 2202.94 437.592C2211.38 431.196 2217.6 422.448 2221.58 411.347C2225.68 400.125 2227.73 387.394 2227.73 373.156C2227.73 358.676 2225.68 345.945 2221.58 334.965C2217.6 323.863 2211.44 315.236 2203.12 309.082C2194.79 302.807 2184.23 299.67 2171.44 299.67C2158.17 299.67 2147.19 302.928 2138.5 309.444C2129.93 315.96 2123.54 324.768 2119.31 335.87C2115.21 346.971 2113.16 359.4 2113.16 373.156C2113.16 387.032 2115.27 399.582 2119.49 410.804C2123.72 421.905 2130.05 430.714 2138.5 437.23C2147.07 443.746 2157.75 447.004 2170.54 447.004ZM2227.73 471.077V327.182H2224.11V210.437H2256.51V471.077H2227.73Z" fill="url(#paint2_linear_97_1036)"/>
<path d="M2310.84 471.077V210.437H2343.06V440.488H2463.97V471.077H2310.84ZM2550.15 476.507C2535.55 476.507 2523.3 473.852 2513.41 468.543C2503.64 463.113 2496.22 455.993 2491.15 447.185C2486.2 438.376 2483.73 428.723 2483.73 418.225C2483.73 407.968 2485.66 399.099 2489.52 391.618C2493.5 384.016 2499.05 377.741 2506.17 372.794C2513.29 367.726 2521.8 363.744 2531.69 360.848C2540.98 358.314 2551.36 356.142 2562.82 354.332C2574.41 352.401 2586.11 350.651 2597.94 349.083C2609.76 347.514 2620.8 346.006 2631.06 344.558L2619.48 351.255C2619.84 333.879 2616.34 321.028 2608.98 312.702C2601.74 304.376 2589.19 300.213 2571.33 300.213C2559.5 300.213 2549.13 302.928 2540.2 308.358C2531.39 313.667 2525.18 322.355 2521.56 334.422L2490.97 325.191C2495.67 308.056 2504.78 294.602 2518.3 284.828C2531.81 275.054 2549.61 270.167 2571.69 270.167C2589.43 270.167 2604.63 273.364 2617.3 279.76C2630.09 286.034 2639.27 295.567 2644.82 308.358C2647.59 314.391 2649.34 320.967 2650.07 328.087C2650.79 335.085 2651.15 342.446 2651.15 350.169V471.077H2622.55V424.198L2629.25 428.542C2621.89 444.349 2611.57 456.295 2598.3 464.38C2585.15 472.464 2569.1 476.507 2550.15 476.507ZM2555.04 449.538C2566.62 449.538 2576.64 447.486 2585.09 443.384C2593.65 439.16 2600.53 433.67 2605.72 426.913C2610.91 420.035 2614.29 412.553 2615.86 404.469C2617.67 398.435 2618.63 391.738 2618.75 384.378C2618.99 376.896 2619.11 371.165 2619.11 367.183L2630.34 372.07C2619.84 373.518 2609.52 374.905 2599.39 376.233C2589.25 377.56 2579.66 379.008 2570.61 380.577C2561.56 382.025 2553.41 383.774 2546.17 385.826C2540.86 387.515 2535.85 389.687 2531.15 392.342C2526.56 394.996 2522.82 398.435 2519.93 402.659C2517.15 406.761 2515.76 411.89 2515.76 418.044C2515.76 423.353 2517.09 428.421 2519.75 433.248C2522.52 438.074 2526.74 441.996 2532.42 445.013C2538.21 448.029 2545.75 449.538 2555.04 449.538ZM2787.99 476.507C2769.65 476.507 2754.2 471.982 2741.65 462.932C2729.1 453.761 2719.57 441.393 2713.05 425.827C2706.66 410.14 2703.46 392.583 2703.46 373.156C2703.46 353.487 2706.66 335.87 2713.05 320.304C2719.57 304.738 2729.1 292.49 2741.65 283.561C2754.32 274.631 2769.83 270.167 2788.17 270.167C2806.27 270.167 2821.83 274.692 2834.87 283.742C2848.02 292.671 2858.09 304.919 2865.09 320.485C2872.09 336.051 2875.59 353.608 2875.59 373.156C2875.59 392.704 2872.09 410.261 2865.09 425.827C2858.09 441.393 2848.02 453.761 2834.87 462.932C2821.83 471.982 2806.21 476.507 2787.99 476.507ZM2698.03 471.077V210.437H2730.43V327.182H2726.81V471.077H2698.03ZM2784.01 447.004C2796.92 447.004 2807.6 443.746 2816.04 437.23C2824.49 430.714 2830.82 421.905 2835.05 410.804C2839.27 399.582 2841.38 387.032 2841.38 373.156C2841.38 359.4 2839.27 346.971 2835.05 335.87C2830.94 324.768 2824.55 315.96 2815.86 309.444C2807.29 302.928 2796.37 299.67 2783.1 299.67C2770.43 299.67 2759.93 302.807 2751.61 309.082C2743.28 315.236 2737.07 323.863 2732.96 334.965C2728.86 345.945 2726.81 358.676 2726.81 373.156C2726.81 387.394 2728.8 400.125 2732.78 411.347C2736.88 422.448 2743.16 431.196 2751.61 437.592C2760.05 443.866 2770.85 447.004 2784.01 447.004ZM2986.29 476.326C2963 476.326 2943.88 471.258 2928.91 461.122C2914.07 450.865 2904.96 436.566 2901.58 418.225L2934.52 412.976C2937.18 423.594 2943.27 432.041 2952.8 438.316C2962.34 444.47 2974.16 447.547 2988.28 447.547C3001.67 447.547 3012.17 444.771 3019.77 439.221C3027.38 433.67 3031.18 426.128 3031.18 416.596C3031.18 411.045 3029.91 406.58 3027.38 403.202C3024.84 399.702 3019.59 396.444 3011.63 393.428C3003.79 390.411 2991.9 386.791 2975.97 382.568C2958.72 377.982 2945.14 373.216 2935.25 368.269C2925.35 363.321 2918.29 357.59 2914.07 351.074C2909.85 344.558 2907.74 336.654 2907.74 327.363C2907.74 315.899 2910.87 305.884 2917.15 297.317C2923.42 288.629 2932.17 281.932 2943.39 277.226C2954.74 272.52 2967.89 270.167 2982.85 270.167C2997.69 270.167 3010.97 272.52 3022.67 277.226C3034.38 281.932 3043.79 288.629 3050.91 297.317C3058.15 305.884 3062.43 315.899 3063.76 327.363L3030.82 333.336C3029.25 322.838 3024.18 314.572 3015.61 308.539C3007.16 302.505 2996.24 299.308 2982.85 298.946C2970.18 298.463 2959.86 300.695 2951.9 305.643C2944.06 310.59 2940.13 317.287 2940.13 325.734C2940.13 330.44 2941.58 334.482 2944.48 337.861C2947.5 341.239 2952.99 344.437 2960.95 347.454C2969.03 350.47 2980.74 353.909 2996.06 357.771C3013.32 362.115 3026.89 366.881 3036.79 372.07C3046.8 377.138 3053.92 383.171 3058.15 390.17C3062.37 397.048 3064.48 405.555 3064.48 415.691C3064.48 434.515 3057.54 449.357 3043.67 460.217C3029.79 470.956 3010.66 476.326 2986.29 476.326Z" fill="url(#paint3_linear_97_1036)"/>
<defs>
<linearGradient id="paint0_linear_97_1036" x1="350.86" y1="340.997" x2="631.602" y2="662.882" gradientUnits="userSpaceOnUse">
<stop stop-color="white"/>
<stop offset="0.916667" stop-color="#C9C9C9"/>
</linearGradient>
<linearGradient id="paint1_linear_97_1036" x1="692.771" y1="666.435" x2="27.3933" y2="-25.029" gradientUnits="userSpaceOnUse">
<stop offset="0.245" stop-color="#008FE0"/>
<stop offset="1" stop-color="#80CEFA"/>
</linearGradient>
<linearGradient id="paint2_linear_97_1036" x1="1089.11" y1="85.0767" x2="1261.55" y2="943.991" gradientUnits="userSpaceOnUse">
<stop stop-color="white"/>
<stop offset="0.916667" stop-color="#C9C9C9"/>
</linearGradient>
<linearGradient id="paint3_linear_97_1036" x1="851.205" y1="85.0767" x2="1060" y2="1026.78" gradientUnits="userSpaceOnUse">
<stop offset="0.245" stop-color="#008FE0"/>
<stop offset="1" stop-color="#80CEFA"/>
</linearGradient>
</defs>
</svg>
