<svg width="51" height="50" viewBox="0 0 51 50" fill="none" xmlns="http://www.w3.org/2000/svg">
<path d="M25.1451 0H26.1399C31.5717 0 36.814 2.12283 41.8669 6.3685C47.2355 11.9592 49.9199 17.8253 49.9199 23.9669V26.3491C49.9199 29.9141 48.5777 34.1031 45.8934 38.9159C42.5774 43.7773 38.0614 47.1317 32.3454 48.9791C29.6926 49.6597 27.482 50 25.7135 50H25.5714C18.9553 50 13.0419 47.3424 7.83109 42.0272C3.40984 36.8417 1.19922 31.17 1.19922 25.0122C1.19922 18.433 3.70196 12.4129 8.70745 6.95187C13.9182 2.31729 19.3974 0 25.1451 0ZM26.5899 20.7098V21.9008C26.5899 22.0953 26.4872 22.1925 26.282 22.1925C23.266 21.7712 20.6764 20.6855 18.5132 18.9353L16.4999 17.0151H16.3341C16.3341 17.1771 16.1447 17.5741 15.7657 18.2061V19.9806C15.892 20.9853 16.5631 22.1196 17.7789 23.3836V23.5294C17.1158 23.5294 16.4447 23.335 15.7657 22.946V23.0919C15.7657 24.9878 16.9658 26.6164 19.3659 27.9776L19.0816 28.1235H18.3711L17.6368 27.9776V28.2693C18.7421 30.3435 20.1396 31.3807 21.8291 31.3807V31.8182C19.9343 33.0011 18.0553 33.5926 16.192 33.5926H15.3394V33.8843C18.0553 35.1645 20.408 35.8046 22.3976 35.8046C26.5662 35.8046 30.119 34.0788 33.056 30.6271C35.1718 27.613 36.2298 24.7529 36.2298 22.0467V21.0258C37.7614 19.5187 38.5352 18.6761 38.5509 18.4978V18.352C37.9983 18.6437 37.2246 18.8948 36.2298 19.1055L36.0877 18.7895C36.9877 18.2547 37.6588 17.5174 38.1009 16.5775V16.4317H37.9588C36.5377 17.1285 35.6771 17.4769 35.3771 17.4769H34.9508C33.8928 16.5856 32.9296 16.0914 32.0612 15.9942H30.9006C29.29 15.9942 27.9952 16.9259 27.0162 18.7895C26.732 19.2756 26.5899 19.9157 26.5899 20.7098Z" fill="url(#paint0_linear_526_1713)"/>
<path d="M26.5899 20.7097V21.9007C26.5899 22.0952 26.4872 22.1924 26.282 22.1924C23.266 21.7711 20.6764 20.6854 18.5132 18.9352L16.4999 17.015H16.3341C16.3341 17.177 16.1447 17.574 15.7657 18.206V19.9805C15.892 20.9852 16.5631 22.1195 17.7789 23.3835V23.5293C17.1158 23.5293 16.4447 23.3349 15.7657 22.9459V23.0918C15.7657 24.9877 16.9658 26.6163 19.3659 27.9775L19.0816 28.1234H18.3711L17.6368 27.9775V28.2692C18.7421 30.3434 20.1396 31.3806 21.8291 31.3806V31.8181C19.9343 33.001 18.0553 33.5925 16.192 33.5925H15.3394V33.8842C18.0553 35.1644 20.408 35.8045 22.3976 35.8045C26.5662 35.8045 30.119 34.0787 33.056 30.627C35.1718 27.6129 36.2298 24.7528 36.2298 22.0466V21.0257C37.7614 19.5186 38.5352 18.676 38.5509 18.4977V18.3519C37.9983 18.6436 37.2246 18.8947 36.2298 19.1054L36.0877 18.7894C36.9877 18.2546 37.6588 17.5173 38.1009 16.5774V16.4316H37.9588C36.5377 17.1284 35.6771 17.4768 35.3771 17.4768H34.9508C33.8928 16.5855 32.9296 16.0913 32.0612 15.9941H30.9006C29.29 15.9941 27.9952 16.9258 27.0162 18.7894C26.732 19.2755 26.5899 19.9156 26.5899 20.7097Z" fill="url(#paint1_linear_526_1713)"/>
<path d="M27.7098 24.519C27.7098 29.2238 23.9217 33.0378 19.2491 33.0378C14.5765 33.0378 10.7881 29.223 10.7881 24.519C10.7881 19.8151 14.5762 16 19.2491 16C23.922 16 27.7098 19.8143 27.7098 24.519Z" fill="url(#paint2_linear_526_1713)"/>
<path d="M36.9918 24.519C36.9918 28.9476 35.0977 32.5391 32.7613 32.5391C30.4248 32.5391 28.5308 28.9476 28.5308 24.519C28.5308 20.0905 30.4245 16.499 32.761 16.499C35.0974 16.499 36.9918 20.0893 36.9918 24.519Z" fill="url(#paint3_linear_526_1713)"/>
<path d="M40.788 24.5189C40.788 28.4858 40.1219 31.7036 39.3001 31.7036C38.4783 31.7036 37.8125 28.4867 37.8125 24.5189C37.8125 20.5511 38.4786 17.3342 39.3001 17.3342C40.1217 17.3342 40.788 20.5509 40.788 24.5189Z" fill="url(#paint4_linear_526_1713)"/>
<defs>
<linearGradient id="paint0_linear_526_1713" x1="40.8612" y1="86.2746" x2="-16.7527" y2="71.8871" gradientUnits="userSpaceOnUse">
<stop stop-color="#0099FF"/>
<stop offset="1" stop-color="#00CCFF"/>
</linearGradient>
<linearGradient id="paint1_linear_526_1713" x1="34.2351" y1="50.1768" x2="7.48683" y2="42.1449" gradientUnits="userSpaceOnUse">
<stop stop-color="#0099FF"/>
<stop offset="1" stop-color="#00CCFF"/>
</linearGradient>
<linearGradient id="paint2_linear_526_1713" x1="12.595" y1="16" x2="27.9381" y2="32.8297" gradientUnits="userSpaceOnUse">
<stop stop-color="white"/>
<stop offset="0.916667" stop-color="#C9C9C9"/>
</linearGradient>
<linearGradient id="paint3_linear_526_1713" x1="29.4342" y1="16.499" x2="42.0534" y2="23.8506" gradientUnits="userSpaceOnUse">
<stop stop-color="white"/>
<stop offset="0.916667" stop-color="#C9C9C9"/>
</linearGradient>
<linearGradient id="paint4_linear_526_1713" x1="38.1302" y1="17.3342" x2="43.7788" y2="18.626" gradientUnits="userSpaceOnUse">
<stop stop-color="white"/>
<stop offset="0.916667" stop-color="#C9C9C9"/>
</linearGradient>
</defs>
</svg>
