<?xml version="1.0" encoding="UTF-8"?>
<!DOCTYPE svg PUBLIC "-//W3C//DTD SVG 1.1//EN" "http://www.w3.org/Graphics/SVG/1.1/DTD/svg11.dtd">
<svg xmlns="http://www.w3.org/2000/svg" version="1.1" width="256px" height="151px" style="shape-rendering:geometricPrecision; text-rendering:geometricPrecision; image-rendering:optimizeQuality; fill-rule:evenodd; clip-rule:evenodd" xmlns:xlink="http://www.w3.org/1999/xlink">
<g><path style="opacity:0.899" fill="#08a69c" d="M 125.5,-0.5 C 126.833,-0.5 128.167,-0.5 129.5,-0.5C 131.59,1.39022 133.923,3.05689 136.5,4.5C 126.334,11.0842 116,17.4176 105.5,23.5C 107.28,25.4438 109.447,26.7771 112,27.5C 122.565,21.8006 133.065,15.9673 143.5,10C 147.372,10.0988 150.705,11.5988 153.5,14.5C 142.702,20.8015 132.035,27.3015 121.5,34C 126.24,36.3597 130.574,39.1931 134.5,42.5C 132.469,44.5224 130.135,46.1891 127.5,47.5C 113.74,39.0723 99.7403,31.0723 85.5,23.5C 98.8333,15.5 112.167,7.5 125.5,-0.5 Z"/></g>
<g><path style="opacity:0.879" fill="#f6921d" d="M 127.5,95.5 C 127.5,79.5 127.5,63.5 127.5,47.5C 130.135,46.1891 132.469,44.5224 134.5,42.5C 146.112,36.0606 157.612,29.3939 169,22.5C 169.667,26.5 169.667,30.5 169,34.5C 157.751,40.8738 146.585,47.3738 135.5,54C 134.374,57.7436 134.207,61.577 135,65.5C 146.084,58.7075 157.251,52.0408 168.5,45.5C 169.659,49.122 169.825,52.7887 169,56.5C 157.751,62.8738 146.585,69.3738 135.5,76C 134.854,81.4478 134.188,86.9478 133.5,92.5C 131.473,93.5133 129.473,94.5133 127.5,95.5 Z"/></g>
<g><path style="opacity:0.884" fill="#ec1c23" d="M 85.5,23.5 C 99.7403,31.0723 113.74,39.0723 127.5,47.5C 127.5,63.5 127.5,79.5 127.5,95.5C 113.612,87.638 99.779,79.638 86,71.5C 85.5001,55.5035 85.3334,39.5035 85.5,23.5 Z M 93.5,36.5 C 102.15,41.4723 110.816,46.4723 119.5,51.5C 120.659,55.122 120.825,58.7887 120,62.5C 111.582,57.3739 103.082,52.3739 94.5,47.5C 93.5108,43.8927 93.1774,40.226 93.5,36.5 Z M 93.5,55.5 C 102.139,60.4883 110.806,65.4883 119.5,70.5C 120.659,74.122 120.825,77.7887 120,81.5C 111.744,76.2871 103.244,71.4538 94.5,67C 93.5399,63.27 93.2065,59.4367 93.5,55.5 Z"/></g>
<g><path style="opacity:0.837" fill="#fefffe" d="M -0.5,102.5 C 5.84209,102.334 12.1754,102.5 18.5,103C 23.5352,106.013 24.7019,110.18 22,115.5C 21.2496,116.126 20.4162,116.626 19.5,117C 20.9308,117.465 22.0975,118.299 23,119.5C 23.6667,122.833 23.6667,126.167 23,129.5C 21.992,131.259 20.492,132.426 18.5,133C 12.1754,133.5 5.84209,133.666 -0.5,133.5C -0.5,123.167 -0.5,112.833 -0.5,102.5 Z M 5.5,108.5 C 8.8499,108.335 12.1832,108.502 15.5,109C 16.8333,110.667 16.8333,112.333 15.5,114C 12.1832,114.498 8.8499,114.665 5.5,114.5C 5.5,112.5 5.5,110.5 5.5,108.5 Z M 5.5,120.5 C 9.22605,120.177 12.8927,120.511 16.5,121.5C 17.8333,123.167 17.8333,124.833 16.5,126.5C 12.8927,127.489 9.22605,127.823 5.5,127.5C 5.5,125.167 5.5,122.833 5.5,120.5 Z"/></g>
<g><path style="opacity:0.8" fill="#fefffe" d="M 26.5,102.5 C 28.8333,102.5 31.1667,102.5 33.5,102.5C 33.5,110.833 33.5,119.167 33.5,127.5C 38.1667,127.5 42.8333,127.5 47.5,127.5C 47.5,129.5 47.5,131.5 47.5,133.5C 40.5,133.5 33.5,133.5 26.5,133.5C 26.5,123.167 26.5,112.833 26.5,102.5 Z"/></g>
<g><path style="opacity:0.819" fill="#fefffe" d="M 54.5,102.5 C 58.8461,102.334 63.1794,102.501 67.5,103C 69.8477,103.346 71.6811,104.513 73,106.5C 74.544,113.084 74.8773,119.751 74,126.5C 71.6666,132.191 67.3333,134.524 61,133.5C 56.9177,133.909 53.2511,132.909 50,130.5C 48.443,123.247 48.1097,115.914 49,108.5C 50.3597,105.977 52.193,103.977 54.5,102.5 Z M 56.5,108.5 C 60.1064,108.211 63.6064,108.544 67,109.5C 67.6667,114.833 67.6667,120.167 67,125.5C 63.5582,127.733 59.8915,128.067 56,126.5C 55.2124,120.418 55.379,114.418 56.5,108.5 Z"/></g>
<g><path style="opacity:0.822" fill="#fefffe" d="M 82.5,102.5 C 87.9586,102.103 93.2919,102.603 98.5,104C 101.029,106.642 102.029,109.808 101.5,113.5C 99.1667,113.5 96.8333,113.5 94.5,113.5C 94.7135,111.856 94.3802,110.356 93.5,109C 90.2397,108.216 87.0731,108.383 84,109.5C 83.1701,115.196 83.3368,120.863 84.5,126.5C 87.438,127.575 90.438,127.741 93.5,127C 95.1554,125.556 95.822,123.722 95.5,121.5C 97.5,121.5 99.5,121.5 101.5,121.5C 102.445,130.721 98.2781,134.721 89,133.5C 83.446,134.39 79.446,132.39 77,127.5C 76.3333,121.167 76.3333,114.833 77,108.5C 78.0209,105.65 79.8542,103.65 82.5,102.5 Z"/></g>
<g><path style="opacity:0.85" fill="#fefffe" d="M 104.5,102.5 C 106.5,102.5 108.5,102.5 110.5,102.5C 110.5,106.5 110.5,110.5 110.5,114.5C 111.552,114.649 112.552,114.483 113.5,114C 116.5,110.333 119.5,106.667 122.5,103C 125.227,102.182 127.894,102.348 130.5,103.5C 126.155,107.847 122.155,112.514 118.5,117.5C 122.46,122.795 126.793,127.795 131.5,132.5C 128.894,133.652 126.227,133.818 123.5,133C 120.049,129.26 116.715,125.427 113.5,121.5C 112.675,120.614 111.675,120.281 110.5,120.5C 110.5,124.833 110.5,129.167 110.5,133.5C 108.5,133.5 106.5,133.5 104.5,133.5C 104.5,123.167 104.5,112.833 104.5,102.5 Z"/></g>
<g><path style="opacity:0.826" fill="#fefffe" d="M 137.5,102.5 C 142.959,102.103 148.292,102.603 153.5,104C 156.186,106.546 157.186,109.713 156.5,113.5C 154.143,113.663 151.81,113.497 149.5,113C 149.966,111.701 149.966,110.201 149.5,108.5C 146.15,108.335 142.817,108.502 139.5,109C 138.855,111.914 138.522,114.914 138.5,118C 137.237,127.044 140.904,129.878 149.5,126.5C 150.452,124.955 150.785,123.288 150.5,121.5C 152.924,121.192 155.257,121.526 157.5,122.5C 157.088,126.089 155.755,129.256 153.5,132C 148.254,133.506 142.921,133.839 137.5,133C 135.714,132.215 134.214,131.049 133,129.5C 131.409,122.608 131.076,115.608 132,108.5C 133.36,105.977 135.193,103.977 137.5,102.5 Z"/></g>
<g><path style="opacity:0.797" fill="#fefffe" d="M 159.5,102.5 C 161.833,102.5 164.167,102.5 166.5,102.5C 166.793,106.437 166.46,110.27 165.5,114C 169.821,114.499 174.154,114.666 178.5,114.5C 178.5,110.5 178.5,106.5 178.5,102.5C 180.833,102.5 183.167,102.5 185.5,102.5C 185.5,112.833 185.5,123.167 185.5,133.5C 183.167,133.5 180.833,133.5 178.5,133.5C 178.5,129.167 178.5,124.833 178.5,120.5C 174.154,120.334 169.821,120.501 165.5,121C 166.464,125.066 166.797,129.233 166.5,133.5C 164.167,133.5 161.833,133.5 159.5,133.5C 159.5,123.167 159.5,112.833 159.5,102.5 Z"/></g>
<g><path style="opacity:0.826" fill="#fefffe" d="M 196.5,102.5 C 200.03,101.989 203.196,102.656 206,104.5C 209.068,113.87 212.235,123.204 215.5,132.5C 210.257,134.601 207.59,132.934 207.5,127.5C 203.167,127.5 198.833,127.5 194.5,127.5C 194.167,129.5 193.833,131.5 193.5,133.5C 191.167,133.5 188.833,133.5 186.5,133.5C 189.435,123.028 192.769,112.695 196.5,102.5 Z M 200.5,109.5 C 202.242,113.544 203.909,117.711 205.5,122C 202.5,122.667 199.5,122.667 196.5,122C 198.335,117.996 199.668,113.83 200.5,109.5 Z"/></g>
<g><path style="opacity:0.767" fill="#fefffe" d="M 216.5,102.5 C 218.833,102.5 221.167,102.5 223.5,102.5C 223.5,112.833 223.5,123.167 223.5,133.5C 221.167,133.5 218.833,133.5 216.5,133.5C 216.5,123.167 216.5,112.833 216.5,102.5 Z"/></g>
<g><path style="opacity:0.815" fill="#fefffe" d="M 255.5,102.5 C 255.5,112.833 255.5,123.167 255.5,133.5C 252.102,133.82 248.768,133.487 245.5,132.5C 242,125.5 238.5,118.5 235,111.5C 234.5,118.826 234.334,126.159 234.5,133.5C 232.167,133.5 229.833,133.5 227.5,133.5C 227.5,123.167 227.5,112.833 227.5,102.5C 231.226,102.177 234.893,102.511 238.5,103.5C 242.273,110.712 245.773,118.045 249,125.5C 249.5,117.841 249.666,110.174 249.5,102.5C 251.5,102.5 253.5,102.5 255.5,102.5 Z"/></g>
<g><path style="opacity:0.637" fill="#fefffe" d="M 26.5,150.5 C 25.5,150.5 24.5,150.5 23.5,150.5C 23.5,146.5 23.5,142.5 23.5,138.5C 26.1667,138.5 28.8333,138.5 31.5,138.5C 31.5,139.5 31.5,140.5 31.5,141.5C 24.8333,142.167 24.8333,142.833 31.5,143.5C 31.5,144.5 31.5,145.5 31.5,146.5C 29.8333,146.5 28.1667,146.5 26.5,146.5C 26.5,147.833 26.5,149.167 26.5,150.5 Z"/></g>
<g><path style="opacity:0.689" fill="#fefffe" d="M 47.5,150.5 C 44.8333,150.5 42.1667,150.5 39.5,150.5C 38.42,147.257 38.2534,143.924 39,140.5C 42,137.833 45,137.833 48,140.5C 48.7466,143.924 48.58,147.257 47.5,150.5 Z M 41.5,141.5 C 42.8333,141.5 44.1667,141.5 45.5,141.5C 45.6621,143.527 45.4955,145.527 45,147.5C 44,148.833 43,148.833 42,147.5C 41.5045,145.527 41.3379,143.527 41.5,141.5 Z"/></g>
<g><path style="opacity:0.678" fill="#fefffe" d="M 64.5,150.5 C 61.8333,150.5 59.1667,150.5 56.5,150.5C 55.5701,146.6 55.2367,142.6 55.5,138.5C 56.5,138.5 57.5,138.5 58.5,138.5C 58.3354,141.518 58.502,144.518 59,147.5C 60.0113,148.337 61.1779,148.67 62.5,148.5C 62.5,145.167 62.5,141.833 62.5,138.5C 63.5,138.5 64.5,138.5 65.5,138.5C 65.7633,142.6 65.4299,146.6 64.5,150.5 Z"/></g>
<g><path style="opacity:0.659" fill="#fefffe" d="M 84.5,150.5 C 82.8333,150.5 81.1667,150.5 79.5,150.5C 77.3664,142.825 76.3664,142.825 76.5,150.5C 75.5,150.5 74.5,150.5 73.5,150.5C 73.5,146.5 73.5,142.5 73.5,138.5C 74.8734,138.343 76.2068,138.51 77.5,139C 78.7938,141.087 79.9605,143.254 81,145.5C 81.4966,143.19 81.6633,140.857 81.5,138.5C 82.5,138.5 83.5,138.5 84.5,138.5C 84.5,142.5 84.5,146.5 84.5,150.5 Z"/></g>
<g><path style="opacity:0.644" fill="#fefffe" d="M 101.5,150.5 C 98.1667,150.5 94.8333,150.5 91.5,150.5C 91.5,146.5 91.5,142.5 91.5,138.5C 101.78,136.777 105.113,140.777 101.5,150.5 Z M 94.5,142.5 C 99.2102,140.891 100.543,142.558 98.5,147.5C 97.8333,147.833 97.1667,148.167 96.5,148.5C 95.8313,146.369 95.1646,144.369 94.5,142.5 Z"/></g>
<g><path style="opacity:0.678" fill="#fefffe" d="M 117.5,150.5 C 114.833,150.5 112.167,150.5 109.5,150.5C 109.5,146.5 109.5,142.5 109.5,138.5C 112.167,138.5 114.833,138.5 117.5,138.5C 117.5,139.5 117.5,140.5 117.5,141.5C 110.833,142.167 110.833,142.833 117.5,143.5C 117.5,144.5 117.5,145.5 117.5,146.5C 115.712,146.215 114.045,146.548 112.5,147.5C 114.655,148.001 116.322,149.001 117.5,150.5 Z"/></g>
<g><path style="opacity:0.61" fill="#fefffe" d="M 134.5,150.5 C 133.5,150.5 132.5,150.5 131.5,150.5C 131.5,149.5 131.5,148.5 131.5,147.5C 130.5,147.5 129.5,147.5 128.5,147.5C 128.5,148.5 128.5,149.5 128.5,150.5C 127.167,150.5 125.833,150.5 124.5,150.5C 124.5,146.5 124.5,142.5 124.5,138.5C 127.579,138.26 130.579,138.593 133.5,139.5C 134.262,140.628 134.929,141.795 135.5,143C 134.565,145.381 134.232,147.881 134.5,150.5 Z M 128.5,141.5 C 129.5,141.5 130.5,141.5 131.5,141.5C 131.5,142.5 131.5,143.5 131.5,144.5C 130.5,144.5 129.5,144.5 128.5,144.5C 128.5,143.5 128.5,142.5 128.5,141.5 Z"/></g>
<g><path style="opacity:0.645" fill="#fefffe" d="M 149.5,143.5 C 151.701,145.523 152.034,147.856 150.5,150.5C 147.833,150.5 145.167,150.5 142.5,150.5C 141.766,149.292 141.433,147.959 141.5,146.5C 142.5,146.5 143.5,146.5 144.5,146.5C 141.042,144.484 140.709,141.984 143.5,139C 147.175,137.703 149.842,138.703 151.5,142C 151.164,143.03 150.497,143.53 149.5,143.5 Z M 149.5,143.5 C 147.712,143.785 146.045,143.452 144.5,142.5C 146.582,141.106 148.249,141.439 149.5,143.5 Z M 144.5,146.5 C 145.978,146.238 147.311,146.571 148.5,147.5C 146.76,148.809 145.427,148.476 144.5,146.5 Z"/></g>
<g><path style="opacity:0.616" fill="#fefffe" d="M 172.5,150.5 C 171.5,150.5 170.5,150.5 169.5,150.5C 169.5,146.5 169.5,142.5 169.5,138.5C 172.5,138.5 175.5,138.5 178.5,138.5C 178.5,139.5 178.5,140.5 178.5,141.5C 176.396,141.201 174.396,141.534 172.5,142.5C 174.045,143.452 175.712,143.785 177.5,143.5C 177.5,144.5 177.5,145.5 177.5,146.5C 175.833,146.5 174.167,146.5 172.5,146.5C 172.5,147.833 172.5,149.167 172.5,150.5 Z"/></g>
<g><path style="opacity:0.631" fill="#fefffe" d="M 193.5,150.5 C 190.833,150.5 188.167,150.5 185.5,150.5C 184.64,146.566 184.307,142.566 184.5,138.5C 185.833,138.5 187.167,138.5 188.5,138.5C 188.726,141.249 188.393,143.916 187.5,146.5C 188.32,148.111 189.654,148.778 191.5,148.5C 191.5,145.167 191.5,141.833 191.5,138.5C 192.5,138.5 193.5,138.5 194.5,138.5C 194.763,142.6 194.43,146.6 193.5,150.5 Z"/></g>
<g><path style="opacity:0.657" fill="#fefffe" d="M 213.5,150.5 C 211.833,150.5 210.167,150.5 208.5,150.5C 206.366,142.825 205.366,142.825 205.5,150.5C 204.5,150.5 203.5,150.5 202.5,150.5C 202.5,146.5 202.5,142.5 202.5,138.5C 203.873,138.343 205.207,138.51 206.5,139C 207.794,141.087 208.961,143.254 210,145.5C 210.497,143.19 210.663,140.857 210.5,138.5C 211.5,138.5 212.5,138.5 213.5,138.5C 213.5,142.5 213.5,146.5 213.5,150.5 Z"/></g>
<g><path style="opacity:0.628" fill="#fefffe" d="M 230.5,150.5 C 227.167,150.5 223.833,150.5 220.5,150.5C 220.5,146.5 220.5,142.5 220.5,138.5C 230.808,136.804 234.142,140.804 230.5,150.5 Z M 224.5,141.5 C 227.243,141.077 228.576,142.244 228.5,145C 228.291,146.871 227.291,148.038 225.5,148.5C 224.526,146.257 224.192,143.924 224.5,141.5 Z"/></g>
</svg>
